<?xml version="1.0" encoding="UTF-8"?>
<svg version="1.1" xmlns="http://www.w3.org/2000/svg" width="240" height="240">
    <path d="M0 0 C7.78190426 5.09279062 12.96065519 11.01992138 16.3359375 19.69921875 C18.1354501 29.1875579 17.0615885 37.15936205 12.1484375 45.51171875 C9.86289728 48.53669845 7.45865003 51.41884143 5.0234375 54.32421875 C5.41724609 55.0104834 5.81105469 55.69674805 6.21679688 56.40380859 C7.99011117 59.49976352 9.75684741 62.59942241 11.5234375 65.69921875 C12.45349609 67.31957031 12.45349609 67.31957031 13.40234375 68.97265625 C13.98886719 70.00390625 14.57539062 71.03515625 15.1796875 72.09765625 C15.72431641 73.05075684 16.26894531 74.00385742 16.83007812 74.98583984 C18.0234375 77.32421875 18.0234375 77.32421875 18.0234375 79.32421875 C18.5184375 79.15921875 19.0134375 78.99421875 19.5234375 78.82421875 C27.25358955 77.27818834 33.08702911 78.79703149 40.0234375 82.32421875 C41.38075088 83.29141995 42.72228069 84.28269644 44.0234375 85.32421875 C44.69890625 84.60234375 45.374375 83.88046875 46.0703125 83.13671875 C46.96234375 82.20859375 47.854375 81.28046875 48.7734375 80.32421875 C49.65515625 79.39609375 50.536875 78.46796875 51.4453125 77.51171875 C54.0234375 75.32421875 54.0234375 75.32421875 58.0234375 75.32421875 C58.33984375 77.515625 58.33984375 77.515625 58.0234375 80.32421875 C55.5690682 83.04602373 52.88275332 85.32939257 50.11328125 87.7265625 C47.69084497 90.1364162 47.69084497 90.1364162 48.21484375 93.140625 C48.48167969 94.19121094 48.74851562 95.24179688 49.0234375 96.32421875 C49.0234375 98.96421875 49.0234375 101.60421875 49.0234375 104.32421875 C61.5634375 104.32421875 74.1034375 104.32421875 87.0234375 104.32421875 C87.6834375 101.02421875 88.3434375 97.72421875 89.0234375 94.32421875 C92.97466627 86.04962332 99.41235118 80.55317442 107.85546875 77.19921875 C116.12685217 74.91464429 124.71899792 75.20704776 132.5234375 78.82421875 C140.25148579 83.26992395 145.3646528 89.05058214 148.36328125 97.48828125 C150.52871484 106.79067644 149.82021958 116.01178273 145.0234375 124.32421875 C140.18781898 131.62056622 133.39453741 135.9840221 125.0234375 138.32421875 C114.89388588 139.35637685 105.94093985 138.30402435 97.7109375 132.01171875 C92.17006608 126.47084733 88.85474656 121.00678359 87.0234375 113.32421875 C87.0234375 112.33421875 87.0234375 111.34421875 87.0234375 110.32421875 C73.8234375 110.32421875 60.6234375 110.32421875 47.0234375 110.32421875 C46.3634375 111.97421875 45.7034375 113.62421875 45.0234375 115.32421875 C42.37534426 119.25070184 40.42277661 120.73173071 36.0234375 122.32421875 C36.2594165 123.08226807 36.49539551 123.84031738 36.73852539 124.62133789 C41.88866394 141.17241314 47.00184287 157.73357661 52.0234375 174.32421875 C53.138396 174.4951001 53.138396 174.4951001 54.27587891 174.66943359 C55.25733887 174.83137207 56.23879883 174.99331055 57.25 175.16015625 C58.22018066 175.31532715 59.19036133 175.47049805 60.18994141 175.63037109 C66.41288206 177.15420337 70.49279154 181.15979792 73.9609375 186.38671875 C75.64118333 189.3637986 76.75803036 191.87392593 77.0234375 195.32421875 C77.1265625 196.39671875 77.2296875 197.46921875 77.3359375 198.57421875 C76.72010699 205.96418491 73.28019998 212.18692814 68.0234375 217.32421875 C61.72598171 222.13727425 54.67746893 222.25343158 47.0234375 221.32421875 C40.80996394 219.61677642 36.44659727 215.70346982 33.0234375 210.32421875 C29.81134612 204.01726561 29.41743838 198.1801736 31.0234375 191.32421875 C33.05557377 185.13993378 36.63292285 180.93874017 42.0234375 177.32421875 C43.0134375 176.99421875 44.0034375 176.66421875 45.0234375 176.32421875 C44.37241101 170.40666446 42.84638297 164.98054338 41.08203125 159.3046875 C40.79489761 158.36490555 40.50776398 157.4251236 40.21192932 156.4568634 C39.29982005 153.47362393 38.38087649 150.4925522 37.4609375 147.51171875 C36.5382808 144.51278436 35.61713338 141.51340977 34.69923401 138.51301575 C34.12907661 136.65019527 33.55602917 134.78825647 32.97984314 132.92729187 C32.59428001 131.67007072 32.59428001 131.67007072 32.20092773 130.38745117 C31.97300034 129.64911545 31.74507294 128.91077972 31.51023865 128.15007019 C31.0234375 126.32421875 31.0234375 126.32421875 31.0234375 124.32421875 C30.0334375 124.81921875 30.0334375 124.81921875 29.0234375 125.32421875 C22.90010285 125.28016598 18.46817454 124.10989816 13.0234375 121.32421875 C9.02880269 121.72043591 6.22801027 123.16265841 2.828125 125.23046875 C1.38373047 126.09865234 1.38373047 126.09865234 -0.08984375 126.984375 C-1.08371094 127.59152344 -2.07757813 128.19867188 -3.1015625 128.82421875 C-5.08183282 130.02461428 -7.0635401 131.22264342 -9.046875 132.41796875 C-9.92102051 132.95099609 -10.79516602 133.48402344 -11.69580078 134.03320312 C-13.9765625 135.32421875 -13.9765625 135.32421875 -16.9765625 136.32421875 C-16.76 136.94167969 -16.5434375 137.55914062 -16.3203125 138.1953125 C-13.15965908 147.80896665 -12.90796029 155.89659946 -16.9765625 165.32421875 C-19.79017782 170.02166272 -23.2134527 174.51520528 -27.9765625 177.32421875 C-30.7890625 177.07421875 -30.7890625 177.07421875 -32.9765625 176.32421875 C-32.43496659 172.55766541 -31.06942093 171.28925114 -28.1015625 169.01171875 C-22.88867443 164.61013884 -21.11313852 160.18603475 -20.1015625 153.51171875 C-19.5795455 146.03325783 -21.42253701 139.82520425 -26.1015625 133.94921875 C-31.74017589 128.14614581 -37.38341572 126.12975074 -45.4140625 125.76171875 C-52.75036754 126.02740269 -58.668479 127.91297256 -63.85546875 133.26171875 C-69.79348826 140.81659659 -71.04902514 147.80473079 -69.9765625 157.32421875 C-67.90563011 163.91031705 -64.71436056 168.53727203 -58.9765625 172.32421875 C-52.03490821 175.85815184 -45.6821158 176.48147494 -37.9765625 176.32421875 C-37.9765625 177.97421875 -37.9765625 179.62421875 -37.9765625 181.32421875 C-42.9923175 183.83209625 -49.78997171 182.6006887 -55.0390625 181.26171875 C-63.69317312 178.32720086 -69.49778806 172.82002417 -73.8203125 164.859375 C-77.19192157 157.46689429 -77.72063065 150.27314472 -75.9765625 142.32421875 C-72.09777818 132.14964645 -66.68975111 126.18081306 -56.9765625 121.32421875 C-48.25988818 117.98018551 -39.4123524 118.59949306 -30.9765625 122.32421875 C-22.51941964 127.69564732 -22.51941964 127.69564732 -20.9765625 132.32421875 C-20.19941895 131.83953125 -19.42227539 131.35484375 -18.62158203 130.85546875 C-15.74258894 129.06283123 -12.86118151 127.27421188 -9.97802734 125.48828125 C-8.72963543 124.71384297 -7.48223339 123.93780666 -6.23583984 123.16015625 C-4.44625278 122.04397785 -2.65320848 120.9335561 -0.859375 119.82421875 C0.21940918 119.15390625 1.29819336 118.48359375 2.40966797 117.79296875 C5.0234375 116.32421875 5.0234375 116.32421875 7.0234375 116.32421875 C6.7346875 115.73253906 6.4459375 115.14085938 6.1484375 114.53125 C5.7771875 113.74105469 5.4059375 112.95085937 5.0234375 112.13671875 C4.4665625 110.97076172 4.4665625 110.97076172 3.8984375 109.78125 C2.95619171 107.13539017 2.8650579 105.1107099 3.0234375 102.32421875 C2.12367187 102.10507813 1.22390625 101.8859375 0.296875 101.66015625 C-11.51818777 98.75634854 -23.24890475 95.5610004 -34.9765625 92.32421875 C-35.68123657 93.14696289 -35.68123657 93.14696289 -36.40014648 93.98632812 C-37.02219971 94.70626953 -37.64425293 95.42621094 -38.28515625 96.16796875 C-38.89931396 96.88146484 -39.51347168 97.59496094 -40.14624023 98.33007812 C-43.94024389 102.46365447 -46.77370356 104.07186259 -52.25 104.69921875 C-59.17223897 104.93537189 -65.47563335 104.91685495 -70.9765625 100.32421875 C-77.24908774 93.5875829 -79.48361878 87.49827015 -79.28125 78.32421875 C-78.6180232 71.79398564 -75.82903462 67.85971477 -71.1015625 63.44921875 C-65.56892766 58.98446379 -60.59547887 57.83593442 -53.56640625 58.015625 C-47.50397801 58.73799579 -42.71986229 61.13296233 -38.6015625 65.63671875 C-33.42808837 72.40092869 -32.849916 77.59068372 -31.9765625 86.32421875 C-20.0965625 89.62421875 -8.2165625 92.92421875 4.0234375 96.32421875 C4.3534375 94.67421875 4.6834375 93.02421875 5.0234375 91.32421875 C7.38013877 87.34220627 9.70965424 84.63800201 13.0234375 81.32421875 C8.7334375 73.73421875 4.4434375 66.14421875 0.0234375 58.32421875 C-3.87115324 58.11340024 -3.87115324 58.11340024 -6.9765625 59.32421875 C-17.88794817 60.18975129 -26.45399597 59.09399179 -35.2265625 52.32421875 C-41.5043868 46.28883075 -45.11663249 39.1217799 -45.6875 30.38037109 C-45.86644999 20.96089079 -43.27917223 13.38989816 -37.1484375 6.171875 C-27.42102061 -3.17988961 -12.25095406 -6.48981767 0 0 Z M-34.5390625 11.35546875 C-39.78405125 18.53882291 -41.11864252 25.50547713 -39.9765625 34.32421875 C-38.22363208 41.014397 -34.53457276 46.22995928 -28.9765625 50.32421875 C-21.20817624 54.67142828 -13.96569907 55.60463288 -5.4140625 53.26171875 C0.9892086 50.86608935 6.06812917 46.51773551 9.4609375 40.57421875 C12.2113732 34.22611492 12.89132316 27.30114543 10.9609375 20.63671875 C7.87662014 12.90517881 3.55087376 8.0533305 -3.828125 4.234375 C-14.48138025 -0.27873131 -26.9058643 2.69472463 -34.5390625 11.35546875 Z M-68.7890625 68.63671875 C-72.55825957 73.26744657 -74.58635002 77.11130584 -74.328125 83.23828125 C-73.47178543 88.31922936 -71.17716618 92.18364525 -67.4765625 95.69921875 C-62.17183547 99.14729132 -58.2947989 100.16457532 -51.9765625 99.32421875 C-45.60192488 97.25162128 -41.85698384 93.89701929 -38.7265625 87.94921875 C-37.37317141 83.21234992 -37.63672854 79.46366203 -39.0390625 74.76171875 C-42.00450271 69.50045386 -45.62504578 66.33859851 -51.1640625 63.94921875 C-57.99877809 62.43039306 -63.49627786 64.2848736 -68.7890625 68.63671875 Z M97.0234375 91.32421875 C92.60337293 98.28346934 90.8917403 105.37502154 92.44921875 113.5625 C94.36702032 120.37481356 98.1251037 125.80775701 104.1171875 129.67578125 C111.36390687 133.43434092 118.50451896 134.49415108 126.4609375 132.32421875 C132.82311906 129.95766333 137.951378 125.73866088 141.4765625 119.9296875 C144.90712289 112.25924437 145.22924031 105.05813935 142.4609375 97.13671875 C139.37080416 90.27813013 135.06952612 85.97685209 128.2109375 82.88671875 C116.50854824 78.79088251 105.22408202 81.99465434 97.0234375 91.32421875 Z M11.2109375 91.32421875 C8.78789496 94.57007823 8.78789496 94.57007823 8.0234375 98.32421875 C7.9203125 99.39671875 7.8171875 100.46921875 7.7109375 101.57421875 C8.21566439 107.6309414 10.46439413 112.26252785 15.0859375 116.26171875 C20.17469492 119.83467609 24.9803899 119.98546408 31.0234375 119.32421875 C36.85163206 117.30084554 40.45404432 113.3060658 43.2734375 107.94921875 C44.62682859 103.21234992 44.36327146 99.46366203 42.9609375 94.76171875 C40.34629613 90.12283891 36.81218712 86.71859356 32.0234375 84.32421875 C22.89253175 83.49040849 17.4707539 84.35707846 11.2109375 91.32421875 Z M39.0859375 187.38671875 C35.48420212 192.51646308 35.5107946 197.24845106 36.0234375 203.32421875 C38.05072372 209.2934504 41.9714324 212.68083139 47.4609375 215.63671875 C53.41197336 217.23333813 57.85579355 216.4893941 63.16015625 213.60546875 C66.65026359 211.20556266 69.1244697 208.12215435 71.0234375 204.32421875 C71.530734 198.76890627 71.78604172 193.90591639 69.3359375 188.82421875 C64.67453697 183.78486683 60.6212804 180.73152172 53.7109375 179.94921875 C47.69798854 180.56070509 43.06666266 182.78651475 39.0859375 187.38671875 Z "
          transform="translate(84.9765625,10.67578125)"/>
    <path d="M0 0 C6.01344383 3.56305923 10.02615032 8.77694203 12.15234375 15.41015625 C13.85727092 22.72302567 12.37344255 29.01607335 8.625 35.4375 C4.14497041 40.51611392 -0.56473254 44.10952761 -7.4609375 44.703125 C-8.54632813 44.69796875 -9.63171875 44.6928125 -10.75 44.6875 C-11.83023438 44.69265625 -12.91046875 44.6978125 -14.0234375 44.703125 C-17.75800419 44.40714536 -20.8151349 43.57305191 -24.375 42.4375 C-25.26703125 43.3759375 -26.1590625 44.314375 -27.078125 45.28125 C-28.25987968 46.5005207 -29.442201 47.71924236 -30.625 48.9375 C-31.50478516 49.86755859 -31.50478516 49.86755859 -32.40234375 50.81640625 C-33.26279297 51.69619141 -33.26279297 51.69619141 -34.140625 52.59375 C-34.66430664 53.13837891 -35.18798828 53.68300781 -35.72753906 54.24414062 C-37.375 55.4375 -37.375 55.4375 -41.375 55.4375 C-41.87 53.9525 -41.87 53.9525 -42.375 52.4375 C-41.15234375 50.60546875 -41.15234375 50.60546875 -39.3125 48.625 C-38.67054688 47.92761719 -38.02859375 47.23023438 -37.3671875 46.51171875 C-34.74123357 43.77763731 -32.08857657 41.08489178 -29.375 38.4375 C-29.66375 37.715625 -29.9525 36.99375 -30.25 36.25 C-30.806875 34.8578125 -30.806875 34.8578125 -31.375 33.4375 C-31.9009375 32.2928125 -31.9009375 32.2928125 -32.4375 31.125 C-35.05812068 23.61255405 -34.68590917 17.23646121 -31.25390625 10.109375 C-24.793485 -0.94471688 -11.93662155 -5.23935679 0 0 Z M-24.8125 9.9375 C-28.9027262 15.01963391 -28.90624578 20.14125368 -28.375 26.4375 C-26.34771378 32.40673165 -22.4270051 35.79411264 -16.9375 38.75 C-10.73908423 40.4129896 -5.92710806 39.56687 -0.375 36.4375 C3.67328344 32.76061871 6.6210015 28.90371404 7.625 23.4375 C7.70549719 17.72219957 6.29586427 13.92411188 2.625 9.4375 C-1.32186119 5.79424352 -4.81890319 3.72151076 -10.1875 3.125 C-16.28256754 3.72255564 -20.69755134 5.26994433 -24.8125 9.9375 Z "
          transform="translate(190.375,25.5625)"/>
</svg>
